# xmcd CD database file
#
# Track frame offsets:
#	150
#	27079
#	67998
#	103445
#	137229
#	180823
#	210381
#	245675
#	267502
#	298010
#
# Disc length: 4500 seconds
#
# Revision: 0
# Processed by: cddbd v1.5.2PL0 Copyright (c) Steve Scherf et al.
# Submitted via: CDex 1.51
#
DISCID=9411920a
DTITLE=Friends Of New Orleans - Go To New Orleans
DYEAR=2005
DGENRE=Jazz
TTITLE0=Go To New Orleans
TTITLE1=Tishomingo Blues
TTITLE2=My Memphis Baby
TTITLE3=Precious Lord Take My Hand  And  Lead Me
TTITLE4=Oh How I Miss You Tonight
TTITLE5=C C Rider
TTITLE6=Anytime
TTITLE7=When We Danced At The Mardi Grass
TTITLE8=When The Swallows Return To Capistrano
TTITLE9=Moonlight And Roses
EXTD=YEAR: 2005
EXTT0=
EXTT1=
EXTT2=
EXTT3=
EXTT4=
EXTT5=
EXTT6=
EXTT7=
EXTT8=
EXTT9=
PLAYORDER=
